<svg width="40" height="40" viewBox="0 0 40 40" fill="none" xmlns="http://www.w3.org/2000/svg">
<path fill-rule="evenodd" clip-rule="evenodd" d="M38.9961 20L38.9957 21.9L38.9942 22.6869L38.9919 23.2906L38.9885 23.7995L38.9843 24.2476L38.979 24.6526L38.9729 25.0249L38.9657 25.3711L38.9576 25.6961L38.9486 26.0033L38.9386 26.2952L38.9277 26.5739L38.9158 26.8409L38.903 27.0975L38.8892 27.3449L38.8744 27.5838L38.8587 27.815L38.842 28.0393L38.8244 28.257L38.8058 28.4687L38.7863 28.6749L38.7658 28.8759L38.7443 29.0719L38.7219 29.2634L38.6985 29.4505L38.6741 29.6336L38.6488 29.8127L38.6225 29.9882L38.5953 30.1602L38.567 30.3287L38.5378 30.4941L38.5076 30.6564L38.4765 30.8157L38.4443 30.9722L38.4112 31.1259L38.3771 31.277L38.342 31.4255L38.306 31.5716L38.2689 31.7153L38.2309 31.8566L38.1918 31.9957L38.1518 32.1327L38.1108 32.2674L38.0687 32.4002L38.0257 32.5309L37.9816 32.6596L37.9366 32.7864L37.8905 32.9113L37.8434 33.0344L37.7953 33.1557L37.7462 33.2752L37.6961 33.393L37.6449 33.5092L37.5927 33.6236L37.5394 33.7364L37.4851 33.8477L37.4298 33.9573L37.3734 34.0654L37.3159 34.172L37.2574 34.2771L37.1979 34.3807L37.1372 34.4829L37.0755 34.5836L37.0127 34.6829L36.9488 34.7808L36.8838 34.8773L36.8178 34.9725L36.7506 35.0663L36.6823 35.1588L36.6129 35.25L36.5423 35.3399L36.4707 35.4285L36.3979 35.5158L36.3239 35.6019L36.2488 35.6867L36.1725 35.7702L36.0951 35.8526L36.0164 35.9337L35.9366 36.0137L35.8556 36.0924L35.7733 36.17L35.6898 36.2463L35.6051 36.3216L35.5192 36.3956L35.432 36.4685L35.3435 36.5403L35.2537 36.6109L35.1627 36.6804L35.0703 36.7488L34.9766 36.8161L34.8815 36.8823L34.7851 36.9473L34.6873 37.0113L34.5881 37.0742L34.4875 37.136L34.3855 37.1968L34.282 37.2564L34.1771 37.315L34.0706 37.3725L33.9626 37.429L33.8531 37.4845L33.742 37.5388L33.6293 37.5922L33.515 37.6445L33.3991 37.6958L33.2814 37.746L33.162 37.7952L33.0409 37.8434L32.9179 37.8906L32.7932 37.9367L32.6665 37.9819L32.538 38.026L32.4075 38.0691L32.2749 38.1112L32.1403 38.1524L32.0036 38.1925L31.8647 38.2316L31.7235 38.2697L31.58 38.3069L31.4342 38.343L31.2858 38.3782L31.135 38.4124L30.9815 38.4456L30.8252 38.4778L30.6662 38.509L30.5041 38.5393L30.339 38.5686L30.1707 38.5969L29.9991 38.6242L29.8239 38.6506L29.6451 38.676L29.4624 38.7004L29.2756 38.7239L29.0845 38.7464L28.8888 38.768L28.6883 38.7885L28.4826 38.8082L28.2713 38.8268L28.0541 38.8445L27.8304 38.8613L27.5998 38.8771L27.3615 38.8919L27.1149 38.9058L26.8591 38.9187L26.593 38.9306L26.3153 38.9417L26.0245 38.9517L25.7187 38.9608L25.3953 38.969L25.0509 38.9762L24.681 38.9824L24.2789 38.9877L23.8348 38.9921L23.3317 38.9955L22.7377 38.9979L21.972 38.9994L20.5342 39L18.1755 38.9996L17.3654 38.9982L16.7517 38.996L16.2369 38.9927L15.7848 38.9885L15.3768 38.9834L15.0023 38.9773L14.6542 38.9702L14.3277 38.9622L14.0192 38.9532L13.7262 38.9433L13.4466 38.9325L13.1787 38.9207L12.9213 38.9079L12.6733 38.8942L12.4338 38.8795L12.202 38.8638L11.9772 38.8473L11.759 38.8297L11.5468 38.8112L11.3403 38.7917L11.1389 38.7713L10.9425 38.7499L10.7507 38.7276L10.5632 38.7042L10.3799 38.68L10.2004 38.6547L10.0247 38.6285L9.8525 38.6013L9.68368 38.5731L9.51808 38.544L9.35557 38.5139L9.19603 38.4828L9.03935 38.4508L8.88541 38.4177L8.73413 38.3837L8.58541 38.3487L8.43916 38.3127L8.29531 38.2757L8.15379 38.2377L8.01452 38.1988L7.87745 38.1588L7.74251 38.1178L7.60964 38.0759L7.4788 38.0329L7.34993 37.989L7.22299 37.944L7.09793 37.898L6.9747 37.851L6.85328 37.803L6.73362 37.7539L6.61569 37.7038L6.49945 37.6527L6.38487 37.6006L6.27193 37.5474L6.16058 37.4932L6.05082 37.4379L5.9426 37.3816L5.8359 37.3242L5.73071 37.2658L5.62699 37.2063L5.52474 37.1458L5.42391 37.0841L5.32451 37.0214L5.2265 36.9576L5.12987 36.8927L5.0346 36.8267L4.94068 36.7596L4.84809 36.6914L4.75682 36.6221L4.66684 36.5516L4.57816 36.48L4.49074 36.4073L4.40459 36.3334L4.31969 36.2584L4.23602 36.1822L4.15358 36.1048L4.07236 36.0263L3.99234 35.9465L3.91351 35.8656L3.83587 35.7834L3.75941 35.7001L3.68411 35.6154L3.60996 35.5296L3.53697 35.4425L3.46512 35.3541L3.39441 35.2644L3.32482 35.1734L3.25635 35.0811L3.18899 34.9875L3.12274 34.8926L3.05759 34.7963L2.99353 34.6986L2.93056 34.5995L2.86867 34.499L2.80785 34.3971L2.74811 34.2937L2.68943 34.1889L2.63182 34.0825L2.57526 33.9747L2.51975 33.8652L2.46529 33.7543L2.41187 33.6417L2.35949 33.5275L2.30814 33.4117L2.25783 33.2941L2.20854 33.1749L2.16027 33.0538L2.11303 32.931L2.0668 32.8064L2.02158 32.6799L1.97738 32.5515L1.93418 32.4211L1.89198 32.2887L1.85079 32.1543L1.8106 32.0177L1.7714 31.8789L1.73319 31.738L1.69598 31.5947L1.65975 31.449L1.62451 31.3008L1.59026 31.1502L1.55699 30.9968L1.52469 30.8408L1.49338 30.682L1.46304 30.5201L1.43368 30.3553L1.40529 30.1872L1.37787 30.0158L1.35143 29.8409L1.32595 29.6624L1.30144 29.48L1.27789 29.2935L1.25531 29.1027L1.23369 28.9074L1.21303 28.7072L1.19334 28.5019L1.1746 28.2911L1.15683 28.0744L1.14001 27.8512L1.12414 27.6211L1.10924 27.3835L1.09529 27.1375L1.08229 26.8824L1.07025 26.6172L1.05916 26.3404L1.04903 26.0508L1.03985 25.7462L1.03162 25.4242L1.02434 25.0816L1.01801 24.7139L1.01263 24.3147L1.0082 23.8743L1.00473 23.3768L1.0022 22.7918L1.00063 22.0457L1 20.7582L1.00032 18.2579L1.0016 17.4223L1.00382 16.7979L1.00699 16.2769L1.01112 15.8205L1.01619 15.4094L1.02222 15.0325L1.02919 14.6825L1.03712 14.3543L1.046 14.0445L1.05583 13.7503L1.06662 13.4696L1.07835 13.2009L1.09105 12.9427L1.10469 12.6939L1.11929 12.4537L1.13485 12.2213L1.15136 11.996L1.16884 11.7772L1.18727 11.5646L1.20666 11.3575L1.22701 11.1558L1.24832 10.959L1.27059 10.7668L1.29383 10.579L1.31804 10.3953L1.34321 10.2155L1.36934 10.0395L1.39645 9.86698L1.42453 9.69787L1.45358 9.532L1.48361 9.36924L1.51461 9.20945L1.54659 9.05253L1.57955 8.89836L1.61349 8.74686L1.64842 8.59792L1.68433 8.45146L1.72123 8.30741L1.75912 8.16569L1.798 8.02624L1.83788 7.88898L1.87875 7.75385L1.92063 7.62081L1.96351 7.4898L2.00739 7.36076L2.05229 7.23365L2.09819 7.10843L2.14511 6.98505L2.19306 6.86347L2.24202 6.74366L2.29201 6.62558L2.34302 6.50919L2.39507 6.39447L2.44816 6.28139L2.50229 6.16991L2.55746 6.06L2.61369 5.95165L2.67097 5.84482L2.72931 5.7395L2.78871 5.63566L2.84918 5.53327L2.91072 5.43233L2.97335 5.3328L3.03706 5.23467L3.10187 5.13792L3.16777 5.04254L3.23477 4.9485L3.30289 4.8558L3.37212 4.76441L3.44247 4.67432L3.51396 4.58552L3.58659 4.498L3.66036 4.41174L3.73529 4.32673L3.81139 4.24296L3.88865 4.16041L3.9671 4.07908L4.04674 3.99896L4.12758 3.92003L4.20963 3.84229L4.29291 3.76572L4.37741 3.69032L4.46317 3.61608L4.55018 3.54299L4.63846 3.47104L4.72802 3.40023L4.81888 3.33054L4.91104 3.26197L5.00454 3.19452L5.09938 3.12818L5.19557 3.06293L5.29314 2.99878L5.3921 2.93571L5.49247 2.87373L5.59426 2.81283L5.69751 2.75299L5.80223 2.69423L5.90845 2.63652L6.01618 2.57987L6.12545 2.52427L6.23629 2.46972L6.34872 2.41622L6.46278 2.36375L6.57848 2.31231L6.69587 2.26191L6.81498 2.21254L6.93583 2.16418L7.05848 2.11685L7.18295 2.07054L7.30929 2.02524L7.43754 1.98095L7.56775 1.93766L7.69997 1.89538L7.83424 1.85411L7.97063 1.81383L8.10919 1.77455L8.24998 1.73626L8.39308 1.69896L8.53856 1.66265L8.68648 1.62733L8.83694 1.59299L8.99002 1.55964L9.14582 1.52727L9.30443 1.49587L9.46598 1.46546L9.63058 1.43601L9.79837 1.40754L9.96947 1.38005L10.1441 1.35352L10.3223 1.32796L10.5044 1.30337L10.6905 1.27974L10.8809 1.25708L11.0758 1.23538L11.2756 1.21465L11.4804 1.19488L11.6908 1.17606L11.907 1.15821L12.1296 1.14131L12.3591 1.12537L12.5961 1.11039L12.8413 1.09636L13.0957 1.08329L13.36 1.07117L13.6358 1.06L13.9243 1.04979L14.2276 1.04053L14.548 1.03222L14.8888 1.02487L15.2543 1.01846L15.6507 1.01301L16.0872 1.00851L16.5793 1.00496L17.1555 1.00235L17.8835 1.0007L19.0695 1L21.6555 1.00025L22.5192 1.00145L23.1547 1.00359L23.682 1.00669L24.1426 1.01074L24.5568 1.01574L24.9361 1.02169L25.288 1.02859L25.6177 1.03644L25.9289 1.04525L26.2242 1.05501L26.5058 1.06571L26.7755 1.07738L27.0345 1.08999L27.2839 1.10357L27.5247 1.11809L27.7577 1.13357L27.9836 1.15001L28.2028 1.16741L28.4159 1.18577L28.6233 1.20508L28.8255 1.22536L29.0227 1.2466L29.2152 1.2688L29.4033 1.29196L29.5873 1.31609L29.7674 1.34119L29.9437 1.36725L30.1164 1.39428L30.2858 1.42229L30.4519 1.45127L30.6149 1.48122L30.7749 1.51215L30.932 1.54405L31.0864 1.57694L31.2381 1.6108L31.3872 1.64565L31.5338 1.68149L31.6781 1.71831L31.8199 1.75613L31.9596 1.79493L32.097 1.83474L32.2323 1.87554L32.3655 1.91734L32.4966 1.96014L32.6258 2.00395L32.753 2.04877L32.8784 2.0946L33.0019 2.14144L33.1236 2.18931L33.2436 2.23819L33.3618 2.2881L33.4783 2.33904L33.5931 2.39102L33.7063 2.44403L33.8179 2.49808L33.9279 2.55318L34.0364 2.60932L34.1433 2.66652L34.2488 2.72478L34.3527 2.78411L34.4552 2.8445L34.5562 2.90596L34.6559 2.96851L34.7541 3.03214L34.851 3.09686L34.9464 3.16268L35.0406 3.22961L35.1334 3.29764L35.2249 3.36679L35.315 3.43706L35.4039 3.50847L35.4915 3.58101L35.5779 3.6547L35.663 3.72955L35.7469 3.80556L35.8295 3.88274L35.9109 3.9611L35.9911 4.04065L36.0701 4.1214L36.148 4.20337L36.2246 4.28655L36.3001 4.37097L36.3744 4.45663L36.4476 4.54355L36.5196 4.63173L36.5905 4.7212L36.6603 4.81197L36.7289 4.90404L36.7965 4.99744L36.8629 5.09218L36.9282 5.18827L36.9925 5.28574L37.0556 5.3846L37.1177 5.48486L37.1787 5.58656L37.2386 5.6897L37.2974 5.79432L37.3552 5.90042L37.4119 6.00804L37.4676 6.1172L37.5222 6.22792L37.5758 6.34024L37.6284 6.45418L37.6799 6.56976L37.7303 6.68703L37.7798 6.80601L37.8282 6.92673L37.8756 7.04925L37.922 7.17359L37.9674 7.29979L38.0118 7.4279L38.0551 7.55796L38.0975 7.69003L38.1388 7.82415L38.1792 7.96038L38.2185 8.09878L38.2569 8.23941L38.2943 8.38234L38.3307 8.52764L38.3661 8.67538L38.4005 8.82565L38.4339 8.97853L38.4664 9.13412L38.4978 9.29253L38.5283 9.45386L38.5578 9.61823L38.5864 9.78577L38.6139 9.95662L38.6405 10.1309L38.6662 10.3089L38.6908 10.4907L38.7145 10.6765L38.7373 10.8666L38.7591 11.0612L38.7799 11.2605L38.7997 11.465L38.8186 11.6749L38.8365 11.8907L38.8535 12.1128L38.8695 12.3417L38.8846 12.5781L38.8987 12.8227L38.9118 13.0763L38.924 13.3398L38.9353 13.6146L38.9455 13.9021L38.9549 14.2042L38.9633 14.5232L38.9707 14.8622L38.9772 15.2256L38.9827 15.6192L38.9873 16.0522L38.9909 16.5391L38.9936 17.107L38.9953 17.8183L38.9961 18.9277L38.9961 20Z" stroke="white" stroke-width="1.22581"/>
</svg>
