<svg aria-hidden="true" style="position: absolute; width: 0; height: 0; overflow: hidden;" version="1.1" xmlns="http://www.w3.org/2000/svg" xmlns:xlink="http://www.w3.org/1999/xlink">
<defs>
<symbol id="icon-arrow" viewBox="0 0 35 32">
<path fill="none" stroke="#fff" style="stroke: var(--color1, #fff)" stroke-linejoin="miter" stroke-linecap="butt" stroke-miterlimit="4" stroke-width="2.56" d="M33.281 32v-32"></path>
<path fill="none" stroke="#fff" style="stroke: var(--color1, #fff)" stroke-linejoin="miter" stroke-linecap="butt" stroke-miterlimit="4" stroke-width="2.56" d="M3.803 31.095l29.44-29.44"></path>
<path fill="none" stroke="#fff" style="stroke: var(--color1, #fff)" stroke-linejoin="miter" stroke-linecap="butt" stroke-miterlimit="4" stroke-width="2.56" d="mNaNclNaNNaNclNaNNaNNaNNaNclNaNNaNclNaNNaN"></path>
</symbol>
<symbol id="icon-logo-light" viewBox="0 0 135 32">
<path d="M0 9.169h3.754c1.497 0 2.615 0.27 3.374 0.786 0.76 0.539 1.14 1.46 1.14 2.808 0 0.921-0.112 1.64-0.358 2.179s-0.67 0.966-1.318 1.258l1.855 6.627h-3.084l-1.497-6.132h-0.849v6.132h-3.017v-13.658zM3.844 14.964c0.603 0 1.028-0.157 1.274-0.472s0.358-0.809 0.358-1.438c0-0.629-0.112-1.078-0.335-1.393s-0.603-0.472-1.162-0.472h-0.983v3.774h0.849z"></path>
<path d="M10.078 9.169h6.123v2.067h-3.129v3.392h2.369v2.089h-2.369v4.088h3.151v2.044h-6.145v-13.68z"></path>
<path d="M132.681 0l-75.806 8.007 2.508 23.993 75.806-8.007-2.508-23.993z"></path>
<path opacity="0.2" d="M133.706 2.605l-76.179 2.674 0.838 24.111 76.179-2.674-0.838-24.111z"></path>
<path d="M134.106 3.908h-76.213v24.183h76.213v-24.183z"></path>
<path d="M17.765 9.169h3.218l1.497 7.952 1.609-7.952h3.106l0.246 13.68h-2.123l-0.246-9.098-1.587 9.098h-1.9l-1.698-9.188-0.201 9.165h-2.168l0.246-13.658z"></path>
<path d="M30.167 21.905c-0.626-0.764-0.939-1.887-0.939-3.37v-5.077c0-1.483 0.313-2.606 0.939-3.347s1.676-1.123 3.151-1.123 2.525 0.382 3.173 1.123c0.626 0.764 0.939 1.864 0.939 3.347v5.077c0 1.483-0.313 2.606-0.939 3.37s-1.698 1.146-3.173 1.146-2.525-0.382-3.151-1.146zM34.145 20.468c0.134-0.292 0.201-0.674 0.201-1.168v-6.582c0-0.517-0.067-0.899-0.201-1.191s-0.425-0.427-0.849-0.427c-0.402 0-0.67 0.135-0.804 0.427s-0.201 0.674-0.201 1.168v6.582c0 0.494 0.067 0.876 0.179 1.168 0.134 0.292 0.402 0.427 0.827 0.427 0.425 0.022 0.715-0.112 0.849-0.404z"></path>
<path d="M40.336 11.415h-2.056v-2.246h7.106v2.246h-2.034v11.434h-3.017v-11.434z"></path>
<path d="M52.738 20.805v2.044h-6.078v-13.68h6.034v2.044h-3.106v3.414h2.369v2.089h-2.369v4.088h3.151z"></path>
<path d="M66.325 9.169h3.017v5.526h2.101v-5.526h3.017v13.68h-3.017v-5.998h-2.101v5.975h-3.017v-13.658z"></path>
<path d="M76.515 9.169h6.123v2.067h-3.106v3.392h2.369v2.089h-2.369v4.088h3.151v2.044h-6.145v-13.68h-0.022z"></path>
<path d="M84.023 9.169h3.017v11.636h3.129v2.044h-6.146v-13.68z"></path>
<path d="M91.466 9.169h4.558c1.207 0 2.101 0.337 2.682 1.011 0.603 0.674 0.894 1.662 0.894 2.943 0 1.46-0.335 2.471-1.027 3.055-0.693 0.562-1.654 0.854-2.906 0.854h-1.206v5.818h-3.017v-13.68h0.022zM95.488 14.919c0.536 0 0.871-0.135 1.050-0.427s0.268-0.764 0.268-1.415c0-0.606-0.090-1.056-0.246-1.348-0.178-0.292-0.536-0.449-1.072-0.449h-0.983v3.639h0.983z"></path>
<path d="M101.051 9.169h6.123v2.067h-3.106v3.392h2.369v2.089h-2.369v4.088h3.151v2.044h-6.146v-13.68h-0.022z"></path>
<path d="M108.561 9.169h3.754c1.497 0 2.614 0.27 3.374 0.786 0.759 0.539 1.139 1.46 1.139 2.808 0 0.921-0.111 1.64-0.358 2.179s-0.67 0.966-1.318 1.258l1.855 6.627h-3.106l-1.498-6.132h-0.849v6.132h-3.017v-13.658h0.022zM112.404 14.964c0.604 0 1.028-0.157 1.274-0.472s0.357-0.809 0.357-1.438c0-0.629-0.111-1.078-0.335-1.393s-0.603-0.472-1.162-0.472h-0.983v3.774h0.849z"></path>
<path d="M119.287 21.995c-0.626-0.696-0.962-1.797-1.006-3.302l2.57-0.382c0 0.876 0.112 1.483 0.313 1.864s0.492 0.562 0.871 0.562c0.514 0 0.76-0.337 0.76-0.988 0-0.539-0.112-0.988-0.358-1.37s-0.626-0.786-1.139-1.236l-1.185-1.033c-0.581-0.494-1.028-1.011-1.341-1.572s-0.469-1.213-0.469-1.977c0-1.146 0.335-2.022 1.006-2.651s1.609-0.921 2.793-0.921c1.296 0 2.168 0.382 2.637 1.123 0.47 0.764 0.715 1.662 0.738 2.741l-2.592 0.314c-0.022-0.719-0.090-1.213-0.202-1.528s-0.335-0.472-0.692-0.472c-0.269 0-0.447 0.112-0.604 0.337-0.134 0.225-0.201 0.472-0.201 0.741 0 0.472 0.112 0.854 0.313 1.168s0.536 0.674 1.006 1.078l1.118 0.988c0.67 0.584 1.184 1.191 1.564 1.82 0.38 0.651 0.558 1.393 0.558 2.269 0 0.651-0.156 1.213-0.446 1.752-0.29 0.517-0.715 0.944-1.252 1.236-0.536 0.314-1.162 0.449-1.854 0.449-1.318 0.045-2.279-0.314-2.905-1.011z"></path>
</symbol>
<symbol id="icon-logo-dark" viewBox="0 0 135 32">
<path fill="#fff" style="fill: var(--color1, #fff)" d="M0 9.169h3.754c1.497 0 2.615 0.27 3.374 0.786 0.76 0.539 1.14 1.46 1.14 2.808 0 0.921-0.112 1.64-0.358 2.179s-0.67 0.966-1.318 1.258l1.855 6.627h-3.084l-1.497-6.132h-0.849v6.132h-3.017v-13.658zM3.844 14.964c0.603 0 1.028-0.157 1.274-0.472s0.358-0.809 0.358-1.438c0-0.629-0.112-1.078-0.335-1.393s-0.603-0.472-1.162-0.472h-0.983v3.774h0.849z"></path>
<path fill="#fff" style="fill: var(--color1, #fff)" d="M10.078 9.169h6.123v2.067h-3.129v3.392h2.369v2.089h-2.369v4.088h3.151v2.044h-6.145v-13.68z"></path>
<path fill="none" stroke="#fff" style="stroke: var(--color1, #fff)" stroke-linejoin="miter" stroke-linecap="butt" stroke-miterlimit="4" stroke-width="0.8" d="M59.739 31.56l-2.425-23.197 75.010-7.923 2.425 23.197-75.010 7.923z"></path>
<path fill="none" stroke="#fff" style="stroke: var(--color1, #fff)" stroke-linejoin="miter" stroke-linecap="butt" stroke-miterlimit="4" stroke-width="0.8" d="M58.292 27.692v-23.383h75.413v23.383h-75.413z"></path>
<path fill="#fff" style="fill: var(--color1, #fff)" d="M17.765 9.169h3.218l1.497 7.952 1.609-7.952h3.106l0.246 13.68h-2.123l-0.246-9.098-1.587 9.098h-1.9l-1.698-9.188-0.201 9.165h-2.168l0.246-13.658z"></path>
<path fill="#fff" style="fill: var(--color1, #fff)" d="M30.167 21.905c-0.626-0.764-0.939-1.887-0.939-3.37v-5.077c0-1.483 0.313-2.606 0.939-3.347s1.676-1.123 3.151-1.123 2.525 0.382 3.173 1.123c0.626 0.764 0.939 1.864 0.939 3.347v5.077c0 1.483-0.313 2.606-0.939 3.37s-1.698 1.146-3.173 1.146-2.525-0.382-3.151-1.146zM34.145 20.468c0.134-0.292 0.201-0.674 0.201-1.168v-6.582c0-0.517-0.067-0.899-0.201-1.191s-0.425-0.427-0.849-0.427c-0.402 0-0.67 0.135-0.804 0.427s-0.201 0.674-0.201 1.168v6.582c0 0.494 0.067 0.876 0.179 1.168 0.134 0.292 0.402 0.427 0.827 0.427 0.425 0.022 0.715-0.112 0.849-0.404z"></path>
<path fill="#fff" style="fill: var(--color1, #fff)" d="M40.336 11.415h-2.056v-2.246h7.106v2.246h-2.034v11.434h-3.017v-11.434z"></path>
<path fill="#fff" style="fill: var(--color1, #fff)" d="M52.738 20.805v2.044h-6.078v-13.68h6.034v2.044h-3.106v3.414h2.369v2.089h-2.369v4.088h3.151z"></path>
<path fill="#fff" style="fill: var(--color1, #fff)" d="M66.325 9.169h3.017v5.526h2.101v-5.526h3.017v13.68h-3.017v-5.998h-2.101v5.975h-3.017v-13.658z"></path>
<path fill="#fff" style="fill: var(--color1, #fff)" d="M76.515 9.169h6.123v2.067h-3.106v3.392h2.369v2.089h-2.369v4.088h3.151v2.044h-6.145v-13.68h-0.022z"></path>
<path fill="#fff" style="fill: var(--color1, #fff)" d="M84.023 9.169h3.017v11.636h3.129v2.044h-6.146v-13.68z"></path>
<path fill="#fff" style="fill: var(--color1, #fff)" d="M91.466 9.169h4.558c1.207 0 2.101 0.337 2.682 1.011 0.603 0.674 0.894 1.662 0.894 2.943 0 1.46-0.335 2.471-1.027 3.055-0.693 0.562-1.654 0.854-2.906 0.854h-1.206v5.818h-3.017v-13.68h0.022zM95.488 14.919c0.536 0 0.871-0.135 1.050-0.427s0.268-0.764 0.268-1.415c0-0.606-0.090-1.056-0.246-1.348-0.178-0.292-0.536-0.449-1.072-0.449h-0.983v3.639h0.983z"></path>
<path fill="#fff" style="fill: var(--color1, #fff)" d="M101.051 9.169h6.123v2.067h-3.106v3.392h2.369v2.089h-2.369v4.088h3.151v2.044h-6.146v-13.68h-0.022z"></path>
<path fill="#fff" style="fill: var(--color1, #fff)" d="M108.561 9.169h3.754c1.497 0 2.614 0.27 3.374 0.786 0.759 0.539 1.139 1.46 1.139 2.808 0 0.921-0.111 1.64-0.358 2.179s-0.67 0.966-1.318 1.258l1.855 6.627h-3.106l-1.498-6.132h-0.849v6.132h-3.017v-13.658h0.022zM112.404 14.964c0.604 0 1.028-0.157 1.274-0.472s0.357-0.809 0.357-1.438c0-0.629-0.111-1.078-0.335-1.393s-0.603-0.472-1.162-0.472h-0.983v3.774h0.849z"></path>
<path fill="#fff" style="fill: var(--color1, #fff)" d="M119.287 21.995c-0.626-0.696-0.962-1.797-1.006-3.302l2.57-0.382c0 0.876 0.112 1.483 0.313 1.864s0.492 0.562 0.871 0.562c0.514 0 0.76-0.337 0.76-0.988 0-0.539-0.112-0.988-0.358-1.37s-0.626-0.786-1.139-1.236l-1.185-1.033c-0.581-0.494-1.028-1.011-1.341-1.572s-0.469-1.213-0.469-1.977c0-1.146 0.335-2.022 1.006-2.651s1.609-0.921 2.793-0.921c1.296 0 2.168 0.382 2.637 1.123 0.47 0.764 0.715 1.662 0.738 2.741l-2.592 0.314c-0.022-0.719-0.090-1.213-0.202-1.528s-0.335-0.472-0.692-0.472c-0.269 0-0.447 0.112-0.604 0.337-0.134 0.225-0.201 0.472-0.201 0.741 0 0.472 0.112 0.854 0.313 1.168s0.536 0.674 1.006 1.078l1.118 0.988c0.67 0.584 1.184 1.191 1.564 1.82 0.38 0.651 0.558 1.393 0.558 2.269 0 0.651-0.156 1.213-0.446 1.752-0.29 0.517-0.715 0.944-1.252 1.236-0.536 0.314-1.162 0.449-1.854 0.449-1.318 0.045-2.279-0.314-2.905-1.011z"></path>
</symbol>
<symbol id="icon-number-wrapper" viewBox="0 0 32 32">
<path fill="none" stroke="#fff" style="stroke: var(--color1, #fff)" stroke-linejoin="miter" stroke-linecap="butt" stroke-miterlimit="4" stroke-width="0.9806" d="M31.197 16l-0 1.52-0.001 0.63-0.002 0.483-0.003 0.407-0.003 0.358-0.004 0.324-0.005 0.298-0.006 0.277-0.006 0.26-0.007 0.246-0.008 0.234-0.009 0.223-0.010 0.214-0.010 0.205-0.011 0.198-0.012 0.191-0.013 0.185-0.013 0.179-0.014 0.174-0.015 0.169-0.016 0.165-0.016 0.161-0.017 0.157-0.018 0.153-0.019 0.15-0.020 0.146-0.020 0.143-0.021 0.14-0.022 0.138-0.023 0.135-0.023 0.132-0.024 0.13-0.025 0.127-0.026 0.125-0.026 0.123-0.027 0.121-0.028 0.119-0.029 0.117-0.030 0.115-0.030 0.113-0.031 0.111-0.032 0.11-0.033 0.108-0.034 0.106-0.034 0.105-0.035 0.103-0.036 0.101-0.037 0.1-0.038 0.098-0.038 0.097-0.039 0.096-0.040 0.094-0.041 0.093-0.042 0.092-0.043 0.090-0.043 0.089-0.044 0.088-0.045 0.086-0.046 0.085-0.047 0.084-0.048 0.083-0.049 0.082-0.049 0.081-0.050 0.079-0.051 0.078-0.052 0.077-0.053 0.076-0.054 0.075-0.055 0.074-0.056 0.073-0.056 0.072-0.057 0.071-0.058 0.070-0.059 0.069-0.060 0.068-0.061 0.067-0.062 0.066-0.063 0.065-0.064 0.064-0.065 0.063-0.066 0.062-0.067 0.061-0.068 0.060-0.069 0.059-0.070 0.058-0.071 0.057-0.072 0.056-0.073 0.056-0.074 0.055-0.075 0.054-0.076 0.053-0.077 0.052-0.078 0.051-0.079 0.050-0.080 0.049-0.082 0.049-0.083 0.048-0.084 0.047-0.085 0.046-0.086 0.045-0.088 0.044-0.089 0.043-0.090 0.043-0.091 0.042-0.093 0.041-0.094 0.040-0.096 0.039-0.097 0.039-0.098 0.038-0.1 0.037-0.101 0.036-0.103 0.035-0.104 0.034-0.106 0.034-0.108 0.033-0.109 0.032-0.111 0.031-0.113 0.030-0.115 0.030-0.117 0.029-0.119 0.028-0.121 0.027-0.123 0.027-0.125 0.026-0.127 0.025-0.13 0.024-0.132 0.023-0.135 0.023-0.137 0.022-0.14 0.021-0.143 0.020-0.146 0.020-0.149 0.019-0.153 0.018-0.157 0.017-0.16 0.016-0.165 0.016-0.169 0.015-0.174 0.014-0.179 0.013-0.184 0.013-0.191 0.012-0.197 0.011-0.205 0.010-0.213 0.010-0.222 0.009-0.233 0.008-0.245 0.007-0.259 0.007-0.276 0.006-0.296 0.005-0.322 0.004-0.355 0.004-0.402 0.003-0.475 0.002-0.613 0.001-4.588-0.005-0.362-0.003-0.326-0.004-0.3-0.005-0.278-0.006-0.261-0.006-0.247-0.007-0.234-0.008-0.224-0.009-0.214-0.009-0.206-0.010-0.198-0.011-0.192-0.012-0.185-0.013-0.18-0.013-0.175-0.014-0.17-0.015-0.165-0.016-0.161-0.016-0.157-0.017-0.153-0.018-0.15-0.019-0.147-0.019-0.144-0.020-0.141-0.021-0.138-0.022-0.135-0.023-0.132-0.023-0.13-0.024-0.128-0.025-0.125-0.026-0.123-0.026-0.121-0.027-0.119-0.028-0.117-0.029-0.115-0.030-0.113-0.030-0.111-0.031-0.11-0.032-0.108-0.033-0.106-0.034-0.105-0.034-0.103-0.035-0.102-0.036-0.1-0.037-0.099-0.038-0.097-0.038-0.096-0.039-0.094-0.040-0.093-0.041-0.092-0.042-0.090-0.043-0.089-0.043-0.088-0.044-0.087-0.045-0.085-0.046-0.084-0.047-0.083-0.048-0.082-0.048-0.081-0.049-0.080-0.050-0.078-0.051-0.077-0.052-0.076-0.053-0.075-0.054-0.074-0.055-0.073-0.055-0.072-0.056-0.071-0.057-0.070-0.058-0.069-0.059-0.068-0.060-0.067-0.061-0.066-0.062-0.065-0.063-0.064-0.064-0.063-0.065-0.062-0.066-0.061-0.067-0.060-0.068-0.059-0.069-0.058-0.070-0.057-0.071-0.057-0.072-0.056-0.073-0.055-0.074-0.054-0.075-0.053-0.076-0.052-0.077-0.051-0.078-0.050-0.079-0.050-0.080-0.049-0.082-0.048-0.083-0.047-0.084-0.046-0.085-0.045-0.086-0.044-0.088-0.044-0.089-0.043-0.090-0.042-0.091-0.041-0.093-0.040-0.094-0.039-0.095-0.039-0.097-0.038-0.098-0.037-0.1-0.036-0.101-0.035-0.103-0.035-0.104-0.034-0.106-0.033-0.108-0.032-0.109-0.031-0.111-0.031-0.113-0.030-0.115-0.029-0.117-0.028-0.119-0.027-0.12-0.027-0.123-0.026-0.125-0.025-0.127-0.024-0.13-0.024-0.132-0.023-0.134-0.022-0.137-0.021-0.14-0.020-0.143-0.020-0.146-0.019-0.149-0.018-0.153-0.017-0.156-0.017-0.16-0.016-0.164-0.015-0.169-0.014-0.173-0.013-0.179-0.013-0.184-0.012-0.19-0.011-0.197-0.010-0.204-0.010-0.212-0.009-0.221-0.008-0.232-0.007-0.244-0.007-0.258-0.006-0.274-0.005-0.294-0.004-0.319-0.004-0.352-0.003-0.398-0.002-0.468-0.001-0.597-0-1.030 0-2 0.001-0.668 0.002-0.5 0.003-0.417 0.003-0.365 0.004-0.329 0.005-0.302 0.006-0.28 0.006-0.263 0.007-0.248 0.008-0.235 0.009-0.225 0.009-0.215 0.010-0.207 0.011-0.199 0.012-0.192 0.012-0.186 0.013-0.18 0.014-0.175 0.015-0.17 0.015-0.166 0.016-0.161 0.017-0.157 0.018-0.154 0.019-0.15 0.019-0.147 0.020-0.144 0.021-0.141 0.022-0.138 0.022-0.135 0.023-0.133 0.024-0.13 0.025-0.128 0.026-0.126 0.026-0.123 0.027-0.121 0.028-0.119 0.029-0.117 0.030-0.115 0.030-0.113 0.031-0.112 0.032-0.11 0.033-0.108 0.034-0.106 0.034-0.105 0.035-0.103 0.036-0.102 0.037-0.1 0.038-0.099 0.038-0.097 0.039-0.096 0.040-0.094 0.041-0.093 0.042-0.092 0.042-0.090 0.043-0.089 0.044-0.088 0.045-0.087 0.046-0.085 0.047-0.084 0.048-0.083 0.048-0.082 0.049-0.081 0.050-0.080 0.051-0.079 0.052-0.077 0.053-0.076 0.054-0.075 0.054-0.074 0.055-0.073 0.056-0.072 0.057-0.071 0.058-0.070 0.059-0.069 0.060-0.068 0.061-0.067 0.062-0.066 0.063-0.065 0.064-0.064 0.065-0.063 0.066-0.062 0.067-0.061 0.068-0.060 0.069-0.059 0.070-0.058 0.071-0.058 0.072-0.057 0.073-0.056 0.074-0.055 0.075-0.054 0.076-0.053 0.077-0.052 0.078-0.051 0.079-0.050 0.080-0.050 0.081-0.049 0.083-0.048 0.084-0.047 0.085-0.046 0.086-0.045 0.087-0.044 0.089-0.044 0.090-0.043 0.091-0.042 0.093-0.041 0.094-0.040 0.095-0.040 0.097-0.039 0.098-0.038 0.1-0.037 0.101-0.036 0.103-0.035 0.104-0.035 0.106-0.034 0.107-0.033 0.109-0.032 0.111-0.031 0.113-0.031 0.114-0.030 0.116-0.029 0.118-0.028 0.12-0.027 0.122-0.027 0.125-0.026 0.127-0.025 0.129-0.024 0.132-0.024 0.134-0.023 0.137-0.022 0.14-0.021 0.143-0.020 0.146-0.020 0.149-0.019 0.152-0.018 0.156-0.017 0.16-0.017 0.164-0.016 0.168-0.015 0.173-0.014 0.178-0.014 0.184-0.013 0.19-0.012 0.196-0.011 0.204-0.010 0.211-0.010 0.221-0.009 0.231-0.008 0.243-0.007 0.256-0.007 0.273-0.006 0.292-0.005 0.317-0.004 0.349-0.004 0.394-0.003 0.461-0.002 0.582-0.001 4.639 0.005 0.368 0.003 0.331 0.004 0.303 0.005 0.282 0.006 0.264 0.006 0.249 0.007 0.236 0.008 0.225 0.009 0.216 0.009 0.207 0.010 0.2 0.011 0.193 0.012 0.186 0.012 0.181 0.013 0.175 0.014 0.17 0.015 0.166 0.015 0.162 0.016 0.158 0.017 0.154 0.018 0.15 0.019 0.147 0.019 0.144 0.020 0.141 0.021 0.138 0.022 0.136 0.022 0.133 0.023 0.13 0.024 0.128 0.025 0.126 0.026 0.124 0.026 0.121 0.027 0.119 0.028 0.117 0.029 0.115 0.029 0.113 0.030 0.112 0.031 0.11 0.032 0.108 0.033 0.107 0.033 0.105 0.034 0.103 0.035 0.102 0.036 0.1 0.037 0.099 0.037 0.097 0.038 0.096 0.039 0.095 0.040 0.093 0.041 0.092 0.042 0.091 0.042 0.089 0.043 0.088 0.044 0.087 0.045 0.086 0.046 0.084 0.047 0.083 0.047 0.082 0.048 0.081 0.049 0.080 0.050 0.079 0.051 0.078 0.052 0.076 0.053 0.075 0.054 0.074 0.054 0.073 0.055 0.072 0.056 0.071 0.057 0.070 0.058 0.069 0.059 0.068 0.060 0.067 0.061 0.066 0.062 0.065 0.063 0.064 0.064 0.063 0.065 0.062 0.066 0.061 0.067 0.060 0.068 0.059 0.069 0.059 0.070 0.058 0.071 0.057 0.072 0.056 0.073 0.055 0.074 0.054 0.075 0.053 0.076 0.052 0.077 0.051 0.078 0.050 0.079 0.050 0.080 0.049 0.081 0.048 0.082 0.047 0.084 0.046 0.085 0.045 0.086 0.045 0.087 0.044 0.089 0.043 0.090 0.042 0.091 0.041 0.092 0.040 0.094 0.040 0.095 0.039 0.097 0.038 0.098 0.037 0.099 0.036 0.101 0.036 0.103 0.035 0.104 0.034 0.106 0.033 0.107 0.032 0.109 0.031 0.111 0.031 0.112 0.030 0.114 0.029 0.116 0.028 0.118 0.028 0.12 0.027 0.122 0.026 0.124 0.025 0.127 0.024 0.129 0.024 0.131 0.023 0.134 0.022 0.137 0.021 0.139 0.021 0.142 0.020 0.145 0.019 0.149 0.018 0.152 0.017 0.156 0.017 0.159 0.016 0.164 0.015 0.168 0.014 0.173 0.014 0.178 0.013 0.183 0.012 0.189 0.011 0.196 0.010 0.203 0.010 0.211 0.009 0.22 0.008 0.23 0.008 0.242 0.007 0.255 0.006 0.271 0.005 0.291 0.004 0.315 0.004 0.346 0.003 0.39 0.002 0.454 0.001 0.569 0.001 0.888v0.858z"></path>
</symbol>
<symbol id="icon-skype" viewBox="0 0 32 32">
<path fill="#fff" style="fill: var(--color1, #fff)" d="M31.079 19.399c2.317-10.413-6.805-19.873-17.519-18.057-5.816-3.609-13.56 0.469-13.56 7.389 0 1.609 0.444 3.116 1.216 4.415-2.153 10.437 7.044 19.761 17.748 17.821 7.567 4.001 15.928-3.979 12.115-11.568zM20.895 25.679c-2.811 1.156-7.436 1.163-10.235-0.303-3.991-2.128-4.7-6.919-1.257-6.919 2.595 0 1.773 3.025 4.393 4.259 1.203 0.556 3.788 0.613 5.291-0.4 1.484-0.993 1.348-2.556 0.541-3.303-2.137-1.973-8.253-1.189-11.049-4.644-1.215-1.499-1.444-4.143 0.049-6.060 2.603-3.349 10.24-3.553 13.524-1.024 3.032 2.347 2.213 5.461-0.233 5.461-2.943 0-1.396-3.851-6.147-3.851-3.444 0-4.799 2.449-2.373 3.641 3.288 1.633 11.667 1.088 11.667 7.471-0.007 2.656-1.635 4.636-4.171 5.671z"></path>
</symbol>
<symbol id="icon-telegram" viewBox="0 0 32 32">
<path fill="#fff" style="fill: var(--color1, #fff)" d="M16 32c8.839 0 16-7.161 16-16s-7.161-16-16-16c-8.839 0-16 7.161-16 16s7.161 16 16 16zM7.321 15.653l15.427-5.948c0.716-0.259 1.341 0.175 1.109 1.257l0.001-0.001-2.627 12.375c-0.195 0.877-0.716 1.091-1.445 0.677l-4-2.948-1.929 1.859c-0.213 0.213-0.393 0.393-0.807 0.393l0.284-4.071 7.413-6.697c0.323-0.284-0.072-0.444-0.497-0.161l-9.161 5.768-3.949-1.232c-0.857-0.272-0.876-0.857 0.181-1.271z"></path>
</symbol>
<symbol id="icon-viber" viewBox="0 0 32 32">
<path fill="#fff" style="fill: var(--color1, #fff)" d="M30.873 18.524c0.955-8.036-0.459-13.109-3.008-15.404l0.001-0.001c-4.115-3.919-18.011-4.499-22.933 0.176-2.211 2.287-2.989 5.643-3.075 9.797-0.085 4.156-0.187 11.941 7.068 14.053h0.007l-0.007 3.225c0 0-0.049 1.307 0.785 1.569 0.955 0.309 1.387-0.297 4.356-3.844 4.965 0.431 8.779-0.556 9.212-0.7 1.003-0.336 6.676-1.087 7.593-8.872zM14.557 25.827c0 0-3.143 3.919-4.12 4.936-0.32 0.331-0.671 0.3-0.665-0.356 0-0.431 0.024-5.355 0.024-5.355-6.151-1.763-5.788-8.392-5.721-11.86 0.067-3.469 0.701-6.311 2.573-8.224 4.319-4.049 16.501-3.144 19.605-0.227 3.795 3.364 2.444 12.868 2.452 13.192-0.78 6.499-5.377 6.911-6.223 7.192-0.361 0.12-3.715 0.983-7.925 0.701z"></path>
<path fill="#fff" style="fill: var(--color1, #fff)" d="M16.296 5.729c-0.513 0-0.513 0.8 0 0.807 3.983 0.031 7.263 2.807 7.299 7.899 0 0.537 0.787 0.531 0.78-0.007h-0.001c-0.043-5.487-3.624-8.668-8.077-8.699z"></path>
<path fill="#fff" style="fill: var(--color1, #fff)" d="M21.534 13.591c-0.012 0.531 0.773 0.556 0.78 0.019 0.065-3.025-1.8-5.517-5.305-5.78-0.513-0.037-0.567 0.769-0.055 0.807 3.040 0.231 4.641 2.305 4.58 4.955z"></path>
<path fill="#fff" style="fill: var(--color1, #fff)" d="M20.694 17.032c-0.659-0.381-1.329-0.144-1.607 0.231l-0.58 0.751c-0.295 0.381-0.845 0.331-0.845 0.331-4.019-1.063-5.093-5.268-5.093-5.268s-0.049-0.569 0.319-0.875l0.725-0.6c0.363-0.288 0.592-0.981 0.223-1.663-0.987-1.783-1.649-2.397-1.987-2.869-0.355-0.444-0.888-0.544-1.443-0.244h-0.012c-1.153 0.675-2.416 1.937-2.012 3.237 0.689 1.371 1.956 5.74 5.993 9.041 1.897 1.561 4.9 3.161 6.175 3.531l0.012 0.019c1.256 0.419 2.477-0.893 3.129-2.081v-0.009c0.289-0.575 0.193-1.119-0.229-1.475-0.749-0.731-1.88-1.537-2.768-2.056z"></path>
<path fill="#fff" style="fill: var(--color1, #fff)" d="M17.559 10.805c1.281 0.075 1.903 0.744 1.969 2.119 0.024 0.537 0.804 0.5 0.78-0.037-0.085-1.795-1.021-2.795-2.707-2.888-0.513-0.031-0.561 0.776-0.043 0.807z"></path>
</symbol>
<symbol id="icon-whatsapp" viewBox="0 0 32 32">
<path fill="#fff" style="fill: var(--color1, #fff)" d="M27.207 4.65c-2.994-2.997-6.975-4.649-11.217-4.65-8.74 0-15.853 7.113-15.857 15.856-0.001 2.795 0.729 5.523 2.117 7.928l-2.25 8.217 8.406-2.205c2.316 1.263 4.924 1.929 7.578 1.93h0.007c8.739 0 15.853-7.114 15.857-15.857 0.002-4.237-1.646-8.221-4.64-11.218zM15.99 29.047h-0.005c-2.365-0.001-4.684-0.636-6.708-1.837l-0.481-0.286-4.988 1.309 1.331-4.863-0.313-0.499c-1.319-2.098-2.016-4.524-2.015-7.014 0.003-7.267 5.915-13.178 13.185-13.178 3.52 0.001 6.83 1.374 9.318 3.865s3.858 5.803 3.857 9.324c-0.003 7.267-5.915 13.18-13.18 13.18zM23.219 19.176c-0.396-0.198-2.344-1.157-2.707-1.289s-0.627-0.198-0.891 0.198c-0.264 0.396-1.023 1.289-1.255 1.553s-0.462 0.298-0.858 0.099c-0.396-0.198-1.673-0.617-3.186-1.967-1.178-1.051-1.973-2.348-2.204-2.745s-0.002-0.591 0.174-0.809c0.429-0.533 0.858-1.091 0.99-1.355s0.066-0.496-0.033-0.694c-0.099-0.198-0.891-2.148-1.221-2.942-0.322-0.772-0.648-0.668-0.892-0.68-0.231-0.012-0.495-0.014-0.759-0.014s-0.693 0.099-1.057 0.496c-0.363 0.397-1.387 1.355-1.387 3.305s1.42 3.834 1.618 4.099c0.198 0.264 2.794 4.266 6.768 5.982 0.945 0.409 1.683 0.652 2.259 0.835 0.949 0.302 1.813 0.259 2.496 0.157 0.761-0.114 2.344-0.959 2.674-1.884s0.33-1.719 0.231-1.884c-0.099-0.165-0.363-0.264-0.759-0.463z"></path>
</symbol>
<symbol id="icon-burger-menu" viewBox="0 0 43 32">
<path fill="none" stroke="#fff" style="stroke: var(--color1, #fff)" stroke-linejoin="miter" stroke-linecap="square" stroke-miterlimit="4" stroke-width="2.4615" d="M1.231 1.231h40.615"></path>
<path fill="none" stroke="#fff" style="stroke: var(--color1, #fff)" stroke-linejoin="miter" stroke-linecap="square" stroke-miterlimit="4" stroke-width="2.4615" d="M12.308 16h28.308"></path>
<path fill="none" stroke="#fff" style="stroke: var(--color1, #fff)" stroke-linejoin="miter" stroke-linecap="square" stroke-miterlimit="4" stroke-width="2.4615" d="M1.231 30.769h40.615"></path>
</symbol>
<symbol id="icon-email" viewBox="0 0 33 32">
<path fill="#fff" style="fill: var(--color1, #fff)" d="M32.399 14.183c0-8.456-6.41-14.341-15.624-14.341-9.547 0-16.091 6.606-16.091 16.251 0 9.955 6.37 16.268 16.422 16.268 2.457 0 4.814-0.351 6.566-0.955v-2.457c-1.226 0.567-3.859 0.935-6.526 0.935-8.339 0-13.717-5.358-13.717-13.674 0-8.105 5.475-13.911 13.093-13.911 7.795 0 13.133 4.811 13.133 11.845 0 4.794-1.579 7.892-4.036 7.892-1.402 0-2.2-0.798-2.2-2.166v-11.431h-2.941v2.377h-0.313c-0.758-1.696-2.511-2.747-4.56-2.747-3.99 0-6.777 3.312-6.777 8.046 0 4.95 2.727 8.282 6.78 8.282 2.28 0 4.033-1.112 4.871-3.098h0.314c0.231 1.909 2.004 3.272 4.284 3.272 4.48 0 7.325-4.033 7.325-10.383v-0.003zM11.945 16.189c0-3.412 1.539-5.435 4.15-5.435 2.65 0 4.343 2.103 4.343 5.435s-1.713 5.455-4.383 5.455c-2.551 0-4.11-2.066-4.11-5.455z"></path>
</symbol>
</defs>
</svg>
